<svg id="Layer_1" enable-background="new 0 0 479.996 479.996" height="512" viewBox="0 0 479.996 479.996" width="512" xmlns="http://www.w3.org/2000/svg"><g><path d="m431.038 375.454c-12.282-39.299-51.652-63.486-92.196-56.781l-46.816 7.743c-59.415 9.828-106.699-52.572-78.486-102.625l35.86-63.625c10.143-17.994 29.274-29.172 49.93-29.172h64.034c15.795 0 29.607-10.622 33.59-25.83 1.119-4.274-1.438-8.646-5.713-9.765-4.276-1.119-8.646 1.438-9.766 5.713-2.141 8.174-9.588 13.883-18.111 13.883h-64.034c-26.422 0-50.895 14.298-63.867 37.316l-35.861 63.625c-34.398 61.028 21.575 138.414 95.036 126.267l46.816-7.743c32.528-5.379 64.479 14.296 74.313 45.768 1.616 5.172-1.611 10.577-6.883 11.624l-52.767 10.328c-21.728 4.253-41.506 14.629-57.195 30.005-14.896 14.594-33.336 25.798-54.182 32.158-4.226 1.289-6.606 5.76-5.316 9.986 1.289 4.225 5.758 6.607 9.986 5.317 23.32-7.115 43.997-19.658 60.71-36.034 13.451-13.182 30.419-22.08 49.071-25.73l52.789-10.333c14.597-2.902 23.511-17.846 19.058-32.095z"/><path d="m299.426 65.338s67.006 7.102 67.538 7.204c3.368.65 6.648-.923 8.34-3.69 17.055-23.34 2.499-56.623-26.427-59.759l-78.186-8.478c-47.23-5.119-92.425 22.14-109.915 66.292-2.084 5.26 1.813 10.948 7.435 10.948 3.185 0 6.196-1.915 7.44-5.056 14.848-37.482 53.216-60.625 93.315-56.278l78.186 8.479c15.366 1.666 23.628 18.072 17.245 31.112l-63.29-6.685c-46.125-4.869-91.372 13.489-121.058 49.113l-70.015 84.018c-10.294 12.353-17.179 27.258-19.908 43.105l-42.201 244.972c-.84 4.875 2.91 9.359 7.893 9.359 3.822 0 7.204-2.749 7.875-6.643l42.201-244.973c2.253-13.079 7.935-25.382 16.432-35.578l70.016-84.018c26.259-31.512 66.299-47.753 107.084-43.444z"/></g></svg>