<svg id="Layer_1" enable-background="new 0 0 480.038 480.038" height="512" viewBox="0 0 480.038 480.038" width="512" xmlns="http://www.w3.org/2000/svg"><g><path d="m379.039 30.672c2.43 5.214-1.949 11.066-7.632 10.166-1.831-.29 2.005.141-68.599-7.315-50.936-5.379-101.492 14.584-135.03 54.78-5.189 6.219-15.107.48-12.293-7.115l4.463-12.045c16.89-45.58 62.44-73.76 110.77-68.52l78.18 8.48c14.001 1.514 24.834 10.182 30.141 21.569z"/><path d="m412.008 407.554-52.79 10.34c-18.66 3.65-35.62 12.55-49.08 25.73-16.968 16.634-37.759 29.036-60.71 36.03-1.775.544 11.117.35-193.6.35-4.956 0-8.717-4.487-7.88-9.36l42.2-244.97c2.73-15.85 9.61-30.75 19.91-43.11l70.01-84.01c29.69-35.63 74.94-53.99 121.06-49.12l65.92 6.97c17.89 1.89 31.24 16.82 31.05 34.74v5c.186 19.054-15.275 34.86-34.71 34.86h-64.04c-20.65 0-39.78 11.18-49.93 29.17l-35.86 63.63c-28.292 50.228 19.316 112.414 78.49 102.62l46.82-7.74c40.611-6.724 79.942 17.557 92.19 56.78 4.439 14.217-4.428 29.195-19.05 32.09z"/></g></svg>